<?xml version="1.0" encoding="UTF-8"?>
<svg id="Layer_2" data-name="Layer 2" xmlns="http://www.w3.org/2000/svg" viewBox="0 0 670.54 251.76">
  <defs>
    <style>
      .cls-1 {
        fill: #046fb8;
      }

      .cls-2 {
        fill: #231f20;
      }
    </style>
  </defs>
  <path class="cls-2" d="m0,63.37h39.77v16.8c5.94-6.86,12.8-12.05,20.57-15.6,7.77-3.54,16.34-5.31,25.71-5.31,10.97,0,20.8,2.06,29.49,6.17,8.68,4.11,15.77,10.06,21.26,17.83,6.63-7.77,14.57-13.71,23.83-17.83,9.26-4.11,19.6-6.17,31.03-6.17,20.57,0,36.8,6.23,48.69,18.69,11.88,12.46,17.83,29.2,17.83,50.23v104.57h0c-22.72,0-41.14-18.42-41.14-41.14v-59.66c0-11.66-2.86-20.74-8.57-27.26-5.72-6.51-13.71-9.77-24-9.77s-18.98,3.6-25.37,10.8c-6.4,7.2-9.6,16.63-9.6,28.29v98.75h-41.14v-100.8c0-11.66-2.86-20.74-8.57-27.26-5.72-6.51-13.71-9.77-24-9.77s-18.92,3.6-25.2,10.8c-6.29,7.2-9.43,16.63-9.43,28.29v98.75H0V63.37Z"/>
  <path class="cls-2" d="m577.36,230.69V61.31h41.14v169.37h-41.14Z"/>
  <path class="cls-1" d="m618.49,16.76h0v41.12h-41.12c0-22.71,18.41-41.12,41.12-41.12Z"/>
  <path d="m669.2,207.95c-.84-2.01-2.01-3.68-3.51-5.18-1.5-1.5-3.18-2.67-5.18-3.51s-4.18-1.34-6.35-1.34c-2.34,0-4.35.5-6.35,1.34-2.01.84-3.68,2.01-5.18,3.51-1.5,1.5-2.67,3.18-3.51,5.18-.84,2.01-1.34,4.18-1.34,6.35,0,2.34.5,4.35,1.34,6.35s2.01,3.68,3.51,5.18c1.5,1.5,3.18,2.67,5.18,3.51s4.18,1.34,6.35,1.34c2.34,0,4.35-.5,6.35-1.34,2.01-.84,3.68-2.01,5.18-3.51,1.5-1.5,2.67-3.18,3.51-5.18.84-2.01,1.34-4.18,1.34-6.35s-.5-4.35-1.34-6.35Zm-2.67,11.7c-.67,1.67-1.67,3.18-2.84,4.35-1.17,1.17-2.67,2.17-4.35,2.84s-3.34,1-5.35,1c-1.84,0-3.68-.33-5.35-1-1.67-.67-3.18-1.67-4.35-2.84s-2.17-2.67-2.84-4.35c-.67-1.67-1-3.34-1-5.35,0-1.84.33-3.68,1-5.35s1.67-3.18,2.84-4.35c1.17-1.17,2.67-2.17,4.35-2.84s3.34-1,5.35-1c1.84,0,3.68.33,5.35,1,1.67.67,3.18,1.67,4.35,2.84s2.17,2.67,2.84,4.35c.67,1.67,1,3.34,1,5.35.17,2.01-.33,3.68-1,5.35Zm-9.36-4.01c1.34-.17,2.34-.67,3.18-1.5s1.34-2.01,1.34-3.68c0-1.84-.5-3.18-1.67-4.18-1-1-2.84-1.5-5.02-1.5h-7.36v18.89h3.51v-7.69h2.51l4.68,7.69h3.68l-4.85-8.02Zm-1.84-2.67h-4.18v-5.35h4.18c.5,0,1,.17,1.5.33.5.17.84.5,1,.84s.33.84.33,1.5-.17,1.17-.33,1.5c-.33.33-.67.67-1,.84-.5.17-1,.33-1.5.33Z"/>
  <path d="m537.73,81.71c-17.03-17.02-38.45-25.54-64.28-25.54-.23,0-.46,0-.69,0h-110c-25.75.15-47.24,8.71-64.46,25.71-17.37,17.14-26.05,38.51-26.05,64.11s8.51,46.97,25.54,64.12c17.02,17.14,38.45,25.71,64.29,25.71.23,0,.45-.01.68-.01h110c25.75-.16,47.24-8.77,64.46-25.88,17.37-17.25,26.06-38.68,26.06-64.28s-8.52-46.92-25.55-63.95Zm-29.82,103.21c-9.26,10.4-20.98,15.6-35.15,15.6h-110c-13.94,0-25.6-5.2-34.97-15.6-9.38-10.4-14.06-23.37-14.06-38.92s4.63-28.85,13.89-39.26c9.26-10.4,20.97-15.6,35.14-15.6h110c13.94,0,25.6,5.2,34.97,15.6,9.37,10.41,14.06,23.38,14.06,38.92s-4.63,28.86-13.88,39.26Z"/>
</svg>